<svg width="20" height="21" viewBox="0 0 20 21" fill="none" xmlns="http://www.w3.org/2000/svg">
<path d="M13.5 3.98972C13.9832 3.98972 14.375 4.38147 14.375 4.86472V5.98972L15.5 5.98972C15.9832 5.98972 16.375 6.38147 16.375 6.86472C16.375 7.34796 15.9832 7.73972 15.5 7.73972H14.375V8.86472C14.375 9.34796 13.9832 9.73972 13.5 9.73972C13.0168 9.73972 12.625 9.34796 12.625 8.86472V7.73972H11.5C11.0168 7.73972 10.625 7.34796 10.625 6.86472C10.625 6.38147 11.0168 5.98972 11.5 5.98972L12.625 5.98972V4.86472C12.625 4.38147 13.0168 3.98972 13.5 3.98972Z" fill="#4A4A4A"/>
<path d="M5.75 4.11472C4.64543 4.11472 3.75 5.01015 3.75 6.11472V8.86472C3.75 9.27893 4.08579 9.61472 4.5 9.61472H8.5C8.91421 9.61472 9.25 9.27893 9.25 8.86472V4.86472C9.25 4.4505 8.91421 4.11472 8.5 4.11472H5.75Z" fill="#4A4A4A"/>
<path d="M3.75 14.6147C3.75 15.7193 4.64543 16.6147 5.75 16.6147H8.5C8.91421 16.6147 9.25 16.2789 9.25 15.8647V11.8647C9.25 11.4505 8.91421 11.1147 8.5 11.1147H4.5C4.08579 11.1147 3.75 11.4505 3.75 11.8647V14.6147Z" fill="#4A4A4A"/>
<path d="M14.25 16.6147C15.3546 16.6147 16.25 15.7193 16.25 14.6147V11.8647C16.25 11.4505 15.9142 11.1147 15.5 11.1147H11.5C11.0858 11.1147 10.75 11.4505 10.75 11.8647V15.8647C10.75 16.2789 11.0858 16.6147 11.5 16.6147H14.25Z" fill="#4A4A4A"/>
</svg>
